<?xml version="1.0" ?><!DOCTYPE svg  PUBLIC '-//W3C//DTD SVG 1.1//EN'  'http://www.w3.org/Graphics/SVG/1.1/DTD/svg11.dtd'><svg xmlns="http://www.w3.org/2000/svg" xmlns:xlink="http://www.w3.org/1999/xlink" xmlns:serif="http://www.serif.com/" width="100%" height="100%" viewBox="0 0 512 512" version="1.1" xml:space="preserve" style="fill-rule:evenodd;clip-rule:evenodd;stroke-linejoin:round;stroke-miterlimit:2;"><g transform="matrix(1,0,0,1,-1124,-1124)"><g id="Icons"><path d="M1548.39,1240.27C1553.78,1248.12 1562.4,1251.52 1571.77,1255.13C1583.98,1259.84 1597.48,1265.38 1603.41,1287.85C1605.88,1297.19 1605.04,1306.7 1599.8,1315.03C1594.63,1323.25 1585.33,1330.25 1571.17,1335.12C1564.97,1328.92 1557.8,1326.1 1550.11,1324.83C1542.35,1323.55 1534.04,1323.92 1525.77,1323.7C1507.27,1323.2 1488.14,1321.1 1470.06,1317.13C1446.99,1312.06 1424.59,1302.86 1402.86,1293.7C1390.78,1288.62 1380.12,1281.92 1367.04,1279.41C1342.89,1274.78 1319.06,1282.3 1297.54,1292.29C1275.46,1302.53 1255.85,1313.68 1237.65,1330.04C1227.77,1338.93 1216.44,1349.98 1209.57,1362.03C1201.21,1354.75 1190.03,1351.85 1178.2,1349.82C1165.73,1347.69 1152.51,1346.55 1141.95,1340.63C1140.36,1339.74 1138.37,1340.04 1137.11,1341.36C1135.85,1342.67 1135.64,1344.67 1136.6,1346.23C1143.31,1357.1 1155.23,1363.26 1166.67,1368.84C1167.93,1369.45 1169.17,1370.06 1170.4,1370.66C1168.89,1370.65 1167.37,1370.65 1165.84,1370.66C1158.6,1370.69 1151.23,1370.83 1144.11,1369.21C1142.28,1368.79 1140.41,1369.7 1139.61,1371.4C1138.81,1373.11 1139.3,1375.13 1140.79,1376.28C1147.79,1381.67 1156.23,1384.29 1164.78,1386.41C1170.89,1387.93 1177.06,1389.19 1182.62,1391.34C1182.17,1392.06 1181.76,1392.8 1181.37,1393.54C1177.89,1400.23 1176.59,1408.33 1181.1,1414.98C1183.41,1418.38 1186.34,1420.63 1189.53,1422.56C1192.14,1424.14 1194.95,1425.48 1197.59,1427.37C1201.96,1430.51 1205.07,1434.85 1207.73,1439.45C1211.61,1446.15 1214.1,1456.81 1218.67,1464.98C1222.3,1471.48 1227.18,1476.5 1234.24,1478.09C1247.6,1481.11 1264,1478.75 1270.37,1465.11C1271.67,1462.31 1272.34,1458.5 1273.26,1454.85C1273.84,1452.56 1274.41,1450.29 1275.83,1448.8C1276.44,1449.04 1277.92,1449.64 1278.51,1449.95C1284.34,1453.03 1289.29,1457.32 1295.32,1460.11C1301.7,1463.05 1308.52,1463.28 1315.39,1462.88C1312.38,1468.9 1308.65,1475.15 1306.82,1481.05C1304.3,1489.16 1306.06,1496.97 1306.62,1505.23C1306.98,1510.66 1305.77,1516.69 1306.87,1522.01C1307.51,1525.08 1309.05,1527.96 1310.46,1530.73C1313.81,1537.3 1318.27,1543.15 1324.28,1547.5C1325.04,1548.05 1328.14,1550.29 1329.92,1550.96C1331.53,1551.56 1332.87,1551.36 1333.7,1551.03C1334.28,1550.79 1335.09,1550.32 1335.7,1549.28C1335.98,1548.79 1336.55,1546.45 1336.55,1546.45C1336.55,1546.45 1336.53,1546.55 1336.53,1546.57C1336.99,1544.64 1337.45,1542.71 1337.91,1540.78C1338.63,1537.77 1339.43,1534.77 1340.01,1531.73C1340.12,1531.15 1340.5,1530 1340.59,1529.11C1340.72,1527.85 1340.46,1526.77 1340.06,1526.01C1338.74,1523.51 1337.08,1521.46 1335.5,1519.34C1334.3,1517.73 1333.14,1516.06 1332.45,1513.88C1330.97,1509.19 1329.88,1503.72 1331.17,1498.88C1332.18,1495.13 1335.03,1491.42 1338.54,1488.06C1342.99,1483.82 1348.58,1480.19 1353.59,1478C1353.79,1479.84 1353.69,1481.72 1353.47,1483.63C1353.03,1487.33 1352.12,1491.15 1351.48,1495.11C1348.95,1510.87 1350.26,1527.06 1344.18,1542.14C1341.49,1548.8 1337.56,1553.18 1332.87,1558.49C1332.52,1558.88 1330.81,1560.78 1329.68,1562.29C1328.87,1563.37 1328.34,1564.39 1328.16,1564.99C1327.68,1566.57 1328.1,1567.76 1328.58,1568.53C1328.96,1569.16 1329.77,1570.12 1331.41,1570.46C1332.8,1570.75 1338.44,1570.22 1339.18,1570.19C1345.44,1569.92 1351.71,1569.54 1357.93,1568.8C1358.54,1568.73 1361.99,1568.58 1363.55,1568.21C1365.4,1567.77 1366.37,1566.67 1366.73,1566.06C1368.22,1563.56 1368.74,1559.2 1369.49,1556.33C1371.64,1548.16 1373.38,1539.9 1374.57,1531.54C1376.1,1520.78 1381.18,1511.57 1383.53,1501.13C1385.91,1490.5 1385.13,1479.65 1390.78,1469.87C1392.62,1466.68 1395.21,1464.46 1398.18,1462.81C1399.1,1462.41 1399.99,1461.97 1400.85,1461.49C1405.43,1459.5 1410.55,1458.41 1415.37,1457.34C1428.31,1454.47 1441.92,1455.66 1455.1,1454.99C1458.85,1454.8 1462.59,1454.42 1466.32,1453.98C1474.8,1463.46 1485.64,1467.38 1495.68,1474.76C1512.37,1487.01 1519.33,1503.6 1518.89,1523.93C1518.78,1529.04 1519.88,1535.34 1518.24,1540.25C1516.6,1545.16 1510.63,1550.29 1506.72,1553.47C1505.62,1554.36 1503.51,1555.49 1502.02,1556.68C1500.9,1557.56 1500.05,1558.52 1499.55,1559.42C1498.83,1560.71 1498.93,1561.79 1499.17,1562.6C1499.41,1563.46 1499.9,1564.21 1500.7,1564.79C1501.14,1565.12 1501.77,1565.44 1502.6,1565.57C1502.97,1565.63 1504,1565.6 1504.35,1565.58C1505.42,1565.72 1506.5,1565.78 1507.58,1565.85C1510.91,1566.08 1514.19,1566.13 1517.53,1566.02C1529.83,1565.61 1538.93,1560.12 1545.36,1549.25C1547.5,1545.63 1548.48,1541.33 1548.84,1536.81C1549.31,1530.92 1548.7,1524.63 1548.91,1519.38C1549.42,1506.86 1551.58,1491.69 1556.25,1479.34C1556.88,1479.92 1557.52,1480.49 1558.17,1481.04C1568.73,1490.08 1578.27,1496.73 1583.39,1510.24C1586.37,1518.08 1587.31,1526.87 1588.7,1535.1C1589.58,1540.26 1591.15,1545.74 1590.95,1551.01C1590.8,1554.8 1589.48,1558.61 1587.96,1562.06C1587.47,1563.18 1586.93,1564.28 1586.31,1565.33C1586.06,1565.61 1585.27,1566.48 1585.05,1566.83C1584.59,1567.57 1584.42,1568.27 1584.37,1568.82C1584.29,1569.85 1584.56,1570.74 1585.09,1571.51C1585.57,1572.21 1586.36,1573 1587.86,1573.26C1594.78,1574.44 1603.75,1572.72 1610.7,1572.03C1611.53,1571.95 1615.4,1571.84 1617.1,1571.42C1619.19,1570.9 1620.17,1569.56 1620.51,1568.79C1624.14,1560.51 1624,1549.02 1624,1540.17C1624,1539.54 1623.85,1538.94 1623.58,1538.4C1621.17,1529.66 1618.13,1521.12 1614.35,1512.88C1612.64,1509.15 1609.63,1505.37 1608.95,1501.26C1608.35,1497.6 1609.62,1493.68 1610.58,1489.77C1611.88,1484.54 1612.75,1479.35 1611.12,1474.67C1610.37,1472.51 1608.52,1470.37 1606.11,1468.56C1603.4,1466.52 1599.98,1464.82 1597.91,1463.7C1592.81,1460.93 1587.67,1456.62 1586.82,1450.59C1585.92,1444.26 1587.1,1437.59 1588.62,1430.92C1590.29,1423.62 1592.39,1416.34 1593.2,1409.48C1595.94,1386.16 1590.79,1360.66 1576.66,1341.63C1591.34,1336.06 1600.99,1328.17 1606.57,1319.29C1613.03,1309.02 1614.19,1297.32 1611.15,1285.8C1604.26,1259.75 1588.82,1253.13 1574.65,1247.67C1567.83,1245.03 1561.27,1242.87 1556.76,1237.97C1561.64,1233.37 1564.09,1229.25 1565.08,1225.31C1566.29,1220.5 1565.39,1215.81 1563.38,1210.56C1561.17,1204.8 1557.56,1198.19 1555.17,1189.28C1554.85,1188.07 1553.98,1187.09 1552.83,1186.61C1551.68,1186.14 1550.37,1186.23 1549.29,1186.86C1537.49,1193.74 1532.52,1203.81 1532.89,1213.84C1533.26,1223.48 1538.68,1233.27 1548.39,1240.27ZM1566.94,1342.3C1560.61,1335.07 1552.8,1332.92 1544.49,1332.19C1538.35,1331.64 1531.94,1331.86 1525.56,1331.69C1506.55,1331.18 1486.91,1329.02 1468.34,1324.94C1444.8,1319.77 1421.93,1310.42 1399.76,1301.08C1388.2,1296.21 1378.05,1289.67 1365.54,1287.27C1343.06,1282.96 1320.94,1290.25 1300.91,1299.54C1279.57,1309.44 1260.59,1320.17 1243.01,1335.99C1233.02,1344.98 1221.28,1356.21 1215.14,1368.55C1215.34,1368.89 1215.52,1369.24 1215.69,1369.6C1216.5,1371.29 1217.16,1373.03 1217.65,1374.99C1218.66,1379.02 1219.09,1383.32 1218.89,1388.55C1217.38,1384.78 1215.71,1381.8 1213.88,1378.99C1212.68,1377.16 1211.4,1375.69 1210.12,1374.18C1209.44,1373.38 1208.77,1372.62 1208.07,1371.91C1207.85,1371.73 1207.65,1371.53 1207.48,1371.32C1200.12,1362.36 1188.77,1359.75 1176.85,1357.71C1169.85,1356.51 1162.65,1355.54 1155.75,1353.97C1162.32,1358.23 1169.86,1361.38 1176.6,1364.82C1181.59,1367.37 1186.18,1370.07 1189.9,1373.26C1190.24,1373.48 1190.54,1373.75 1190.8,1374.05C1193.47,1376.49 1195.65,1379.21 1197.12,1382.36C1197.83,1383.87 1197.53,1385.65 1196.37,1386.85C1194.79,1388.48 1193.27,1390.18 1191.9,1391.95C1191.84,1392.04 1191.77,1392.12 1191.7,1392.21C1190.46,1393.83 1189.36,1395.51 1188.46,1397.24C1186.31,1401.38 1184.93,1406.37 1187.72,1410.49C1189.34,1412.86 1191.44,1414.36 1193.67,1415.71C1196.46,1417.4 1199.44,1418.86 1202.25,1420.87C1207.56,1424.68 1211.42,1429.86 1214.66,1435.44C1217.95,1441.13 1220.3,1449.62 1223.67,1457.11C1226.45,1463.27 1229.81,1468.89 1236,1470.29C1245.9,1472.52 1258.4,1471.82 1263.12,1461.72C1264.51,1458.75 1264.96,1454.45 1266.11,1450.7C1267.15,1447.28 1268.72,1444.26 1271.16,1442.23C1272.83,1440.84 1274.9,1440.44 1277.09,1440.83C1278.97,1441.17 1280.96,1442.19 1282.26,1442.88C1287.95,1445.89 1292.77,1450.12 1298.68,1452.85C1305.7,1456.09 1313.37,1455.25 1320.95,1454.48C1321.24,1454.42 1321.53,1454.39 1321.83,1454.39C1323.31,1454.25 1324.78,1454.11 1326.24,1454.01C1337.45,1453.25 1348.12,1454.32 1356.85,1465.52C1360.86,1470.67 1361.91,1475.97 1361.67,1481.49C1361.46,1486.25 1360.21,1491.19 1359.38,1496.37C1356.76,1512.73 1357.91,1529.49 1351.59,1545.14C1348.82,1552 1344.99,1556.8 1340.32,1562.13C1345.89,1561.88 1351.45,1561.52 1356.99,1560.86C1357.31,1560.82 1359.19,1560.65 1360.48,1560.53C1361.1,1558.59 1361.29,1556.06 1361.76,1554.3C1363.82,1546.43 1365.51,1538.47 1366.65,1530.42C1368.21,1519.44 1373.33,1510.03 1375.72,1499.38C1378.29,1487.96 1377.78,1476.38 1383.85,1465.87C1386.35,1461.55 1389.82,1458.47 1393.81,1456.17C1394.15,1455.88 1394.54,1455.64 1394.98,1455.48C1395.09,1455.44 1395.19,1455.4 1395.3,1455.36C1396.22,1454.88 1397.17,1454.45 1398.13,1454.04C1402.13,1451.77 1405.15,1448.19 1407.36,1443.85C1411.33,1436.02 1412.81,1425.89 1412.22,1415.71C1411.12,1397 1403.24,1378.28 1390.85,1373.11C1404.13,1377.31 1413.97,1396 1416.72,1415.25C1418.33,1426.46 1417.46,1437.83 1413.63,1446.78C1413.18,1447.85 1412.68,1448.88 1412.13,1449.87C1412.63,1449.76 1413.14,1449.65 1413.64,1449.54C1427.01,1446.57 1441.07,1447.69 1454.7,1447C1466.47,1446.41 1478.08,1443.95 1489.83,1443.54C1493.88,1443.39 1497.87,1443.44 1501.8,1443.7C1495.06,1437.09 1490.43,1428.81 1488.58,1419.55C1485.96,1406.46 1488.83,1391.43 1499.26,1376.62C1490.78,1391.72 1489.28,1406.23 1492.97,1418.45C1495.41,1426.54 1500.23,1433.46 1506.74,1438.85C1510.77,1442.19 1515.45,1444.9 1520.69,1446.85C1529.49,1449.31 1537.88,1453.21 1545.76,1458.89C1549.99,1461.94 1553.64,1465.66 1557.34,1469.32C1557.55,1469.49 1557.74,1469.68 1557.91,1469.89C1559.69,1471.63 1561.48,1473.35 1563.37,1474.97C1575.01,1484.93 1585.23,1492.51 1590.87,1507.4C1594.03,1515.72 1595.11,1525.03 1596.59,1533.76C1597.56,1539.46 1599.17,1545.52 1598.94,1551.33C1598.75,1556.11 1597.2,1560.93 1595.29,1565.28L1595.1,1565.69C1600.09,1565.52 1605.46,1564.51 1609.92,1564.07C1610.37,1564.03 1612.48,1563.86 1613.88,1563.75C1616.26,1556.85 1616.02,1548.01 1616,1540.91C1615.95,1540.79 1615.91,1540.67 1615.88,1540.55C1613.57,1532.21 1610.68,1524.07 1607.08,1516.21C1605.09,1511.87 1601.84,1507.34 1601.06,1502.55C1600.29,1497.89 1601.58,1492.83 1602.82,1487.85C1603.73,1484.19 1604.71,1480.58 1603.57,1477.3C1603.25,1476.41 1602.3,1475.7 1601.31,1474.95C1598.93,1473.16 1595.91,1471.71 1594.1,1470.73C1586.87,1466.81 1580.11,1460.26 1578.9,1451.72C1577.87,1444.46 1579.08,1436.79 1580.82,1429.14C1582.42,1422.13 1584.48,1415.13 1585.25,1408.54C1587.96,1385.5 1582.41,1360.09 1567.01,1342.38C1566.99,1342.36 1566.96,1342.33 1566.94,1342.3ZM1550.06,1473.3C1547.22,1470.49 1544.33,1467.72 1541.08,1465.38C1525.91,1454.44 1508.64,1450.88 1490.12,1451.53C1485.54,1451.69 1480.99,1452.16 1476.44,1452.72C1483.78,1458.99 1492.42,1462.43 1500.42,1468.31C1519.37,1482.23 1527.39,1501.01 1526.89,1524.1C1526.77,1529.96 1527.71,1537.16 1525.83,1542.79C1524.03,1548.18 1518.35,1554.03 1513.67,1558.08C1514.86,1558.08 1516.06,1558.07 1517.26,1558.03C1526.65,1557.71 1533.56,1553.48 1538.47,1545.18C1540.44,1541.84 1540.9,1537.67 1541.01,1533.44C1541.14,1528.48 1540.74,1523.4 1540.92,1519.05C1541.51,1504.65 1544.22,1486.99 1550.06,1473.3ZM1350.64,1470.57C1350.6,1470.53 1350.57,1470.48 1350.53,1470.44C1343.81,1461.8 1335.42,1461.4 1326.79,1461.99C1326.04,1462.04 1325.3,1462.1 1324.55,1462.16C1321.48,1469.09 1316.61,1476.49 1314.46,1483.42C1312.24,1490.56 1314.11,1497.43 1314.6,1504.69C1314.94,1509.77 1313.67,1515.41 1314.7,1520.38C1315.2,1522.77 1316.5,1524.95 1317.59,1527.1C1320.36,1532.53 1323.99,1537.42 1328.96,1541.01C1329.06,1541.09 1329.27,1541.23 1329.54,1541.4L1330.13,1538.91C1330.83,1536.02 1331.59,1533.14 1332.16,1530.22C1332.2,1529.96 1332.37,1529.33 1332.49,1528.86C1331.46,1527.13 1330.23,1525.66 1329.08,1524.12C1327.37,1521.82 1325.8,1519.39 1324.82,1516.28C1322.9,1510.2 1321.77,1503.09 1323.45,1496.81C1324.78,1491.82 1328.34,1486.73 1333.02,1482.27C1338.22,1477.32 1344.77,1473.12 1350.64,1470.57ZM1185.76,1380.23C1179.72,1378.67 1173.28,1378.63 1166.73,1378.65C1173.9,1380.44 1181.12,1381.97 1187.5,1384.7C1187.85,1384.29 1188.21,1383.88 1188.57,1383.48C1187.77,1382.31 1186.83,1381.24 1185.76,1380.23ZM1551.13,1232.29C1544.82,1227.06 1541.14,1220.31 1540.89,1213.54C1540.66,1207.45 1543.3,1201.47 1549.08,1196.7C1551.36,1203.34 1554.08,1208.67 1555.9,1213.42C1557.26,1216.97 1558.14,1220.1 1557.32,1223.36C1556.61,1226.2 1554.66,1229.03 1551.13,1232.29L1551.13,1232.29Z"/></g></g></svg>